<svg xmlns="http://www.w3.org/2000/svg" width="59" height="59" viewBox="0 0 59 59">
  <metadata><?xpacket begin="﻿" id="W5M0MpCehiHzreSzNTczkc9d"?>
<x:xmpmeta xmlns:x="adobe:ns:meta/" x:xmptk="Adobe XMP Core 5.6-c142 79.160924, 2017/07/13-01:06:39        ">
   <rdf:RDF xmlns:rdf="http://www.w3.org/1999/02/22-rdf-syntax-ns#">
      <rdf:Description rdf:about=""/>
   </rdf:RDF>
</x:xmpmeta>
                                                                                                    
                                                                                                    
                                                                                                    
                                                                                                    
                                                                                                    
                                                                                                    
                                                                                                    
                                                                                                    
                                                                                                    
                                                                                                    
                                                                                                    
                                                                                                    
                                                                                                    
                                                                                                    
                                                                                                    
                                                                                                    
                                                                                                    
                                                                                                    
                                                                                                    
                                                                                                    
                           
<?xpacket end="w"?></metadata>
<defs>
    <style>
      .cls-1 {
        fill: none;
        stroke: #000;
        stroke-width: 1px;
        fill-rule: evenodd;
      }
    </style>
  </defs>
  <path class="cls-1" d="M1376.03,2209.91l-4.07-.69a23.121,23.121,0,0,0-1.63-3.95l2.39-3.36a3.57,3.57,0,0,0-.38-4.61l-3.61-3.61a3.572,3.572,0,0,0-2.54-1.06,3.5,3.5,0,0,0-2.07.67l-3.37,2.4a22.407,22.407,0,0,0-4.09-1.68l-0.68-4.03a3.578,3.578,0,0,0-3.54-2.99h-5.1a3.578,3.578,0,0,0-3.54,2.99l-0.7,4.12a22.683,22.683,0,0,0-3.94,1.66l-3.33-2.4a3.6,3.6,0,0,0-2.08-.66,3.545,3.545,0,0,0-2.54,1.05l-3.62,3.61a3.609,3.609,0,0,0-.39,4.62l2.43,3.4a21.922,21.922,0,0,0-1.61,3.96l-4.03.68a3.578,3.578,0,0,0-2.99,3.54v5.1a3.578,3.578,0,0,0,2.99,3.54l4.12,0.7a22.683,22.683,0,0,0,1.66,3.94l-2.38,3.32a3.572,3.572,0,0,0,.38,4.62l3.61,3.61a3.6,3.6,0,0,0,2.54,1.05,3.5,3.5,0,0,0,2.07-.67l3.4-2.42a24.116,24.116,0,0,0,3.83,1.58l0.68,4.07a3.578,3.578,0,0,0,3.54,2.99h5.11a3.578,3.578,0,0,0,3.54-2.99l0.69-4.07a23.16,23.16,0,0,0,3.95-1.64l3.36,2.4a3.512,3.512,0,0,0,2.08.67h0a3.549,3.549,0,0,0,2.53-1.06l3.61-3.61a3.584,3.584,0,0,0,.39-4.62l-2.4-3.36a23.705,23.705,0,0,0,1.64-3.95l4.07-.68a3.578,3.578,0,0,0,2.99-3.54v-5.1A3.543,3.543,0,0,0,1376.03,2209.91Zm-0.28,8.64a0.323,0.323,0,0,1-.26.32l-5.09.84a1.634,1.634,0,0,0-1.31,1.2,19.3,19.3,0,0,1-2.11,5.08,1.641,1.641,0,0,0,.07,1.78l3,4.22a0.333,0.333,0,0,1-.04.41l-3.61,3.61a0.343,0.343,0,0,1-.23.1,0.351,0.351,0,0,1-.18-0.06l-4.21-3a1.64,1.64,0,0,0-1.78-.07,19.093,19.093,0,0,1-5.07,2.11,1.6,1.6,0,0,0-1.2,1.31l-0.86,5.09a0.323,0.323,0,0,1-.32.26h-5.1a0.323,0.323,0,0,1-.32-0.26l-0.84-5.09a1.634,1.634,0,0,0-1.2-1.31,19.942,19.942,0,0,1-4.97-2.04,1.754,1.754,0,0,0-.82-0.21,1.577,1.577,0,0,0-.95.3l-4.24,3.02a0.426,0.426,0,0,1-.18.06,0.343,0.343,0,0,1-.23-0.1l-3.61-3.61a0.332,0.332,0,0,1-.04-0.41l2.98-4.18a1.656,1.656,0,0,0,.07-1.8,19.276,19.276,0,0,1-2.13-5.06,1.661,1.661,0,0,0-1.31-1.2l-5.12-.87a0.322,0.322,0,0,1-.27-0.32v-5.1a0.3,0.3,0,0,1,.27-0.31l5.05-.85a1.643,1.643,0,0,0,1.32-1.21,19.314,19.314,0,0,1,2.07-5.09,1.624,1.624,0,0,0-.08-1.77l-3.02-4.24a0.332,0.332,0,0,1,.04-0.41l3.61-3.62a0.309,0.309,0,0,1,.23-0.09,0.279,0.279,0,0,1,.18.06l4.18,2.98a1.659,1.659,0,0,0,1.79.07,19.483,19.483,0,0,1,5.07-2.13,1.661,1.661,0,0,0,1.2-1.31l0.87-5.12a0.312,0.312,0,0,1,.31-0.27h5.11a0.312,0.312,0,0,1,.31.27l0.85,5.05a1.643,1.643,0,0,0,1.21,1.32,19.511,19.511,0,0,1,5.2,2.13,1.641,1.641,0,0,0,1.78-.07l4.18-3.01a0.426,0.426,0,0,1,.18-0.06,0.343,0.343,0,0,1,.23.1l3.61,3.61a0.332,0.332,0,0,1,.04.41l-2.99,4.21a1.641,1.641,0,0,0-.08,1.78,19.232,19.232,0,0,1,2.11,5.07,1.6,1.6,0,0,0,1.31,1.2l5.09,0.86a0.322,0.322,0,0,1,.27.32v5.1h-0.02Zm-25.74-15.07a12.515,12.515,0,1,0,12.51,12.51A12.524,12.524,0,0,0,1350.01,2203.48Zm0,21.76a9.245,9.245,0,1,1,9.24-9.25A9.261,9.261,0,0,1,1350.01,2225.24Z" transform="translate(-1320.5 -2186.5)"/>
</svg>
