<svg xmlns="http://www.w3.org/2000/svg" width="52" height="65" viewBox="0 0 52 65">
  <metadata><?xpacket begin="﻿" id="W5M0MpCehiHzreSzNTczkc9d"?>
<x:xmpmeta xmlns:x="adobe:ns:meta/" x:xmptk="Adobe XMP Core 5.6-c142 79.160924, 2017/07/13-01:06:39        ">
   <rdf:RDF xmlns:rdf="http://www.w3.org/1999/02/22-rdf-syntax-ns#">
      <rdf:Description rdf:about=""/>
   </rdf:RDF>
</x:xmpmeta>
                                                                                                    
                                                                                                    
                                                                                                    
                                                                                                    
                                                                                                    
                                                                                                    
                                                                                                    
                                                                                                    
                                                                                                    
                                                                                                    
                                                                                                    
                                                                                                    
                                                                                                    
                                                                                                    
                                                                                                    
                                                                                                    
                                                                                                    
                                                                                                    
                                                                                                    
                                                                                                    
                           
<?xpacket end="w"?></metadata>
<defs>
    <style>
      .cls-1 {
        fill: none;
        stroke: #fff;
        stroke-width: 1px;
        fill-rule: evenodd;
      }
    </style>
  </defs>
  <path id="Shape_1_copy" data-name="Shape 1 copy" class="cls-1" d="M960.486,3619a25.669,25.669,0,0,0-25.033,30.47c0.013,0.09.067,0.38,0.173,0.86a25.549,25.549,0,0,0,1.707,5.06c2.746,6.5,8.784,16.5,22.034,27.21a1.8,1.8,0,0,0,2.266,0c13.236-10.71,19.288-20.71,22.034-27.21a25.267,25.267,0,0,0,1.706-5.06c0.107-.48.16-0.77,0.174-0.86a26.581,26.581,0,0,0,.453-4.82A25.643,25.643,0,0,0,960.486,3619Zm21.488,29.84c0,0.03-.013.05-0.013,0.08-0.014.07-.054,0.27-0.12,0.58v0.02a21.32,21.32,0,0,1-1.48,4.38c-0.013.01-.013,0.04-0.026,0.05-2.493,5.95-7.958,15.02-19.849,24.9-11.89-9.88-17.355-18.95-19.848-24.9-0.013-.01-0.013-0.04-0.026-0.05a22.837,22.837,0,0,1-1.48-4.38v-0.02c-0.08-.31-0.107-0.51-0.12-0.58,0-.03-0.013-0.05-0.013-0.09A21.887,21.887,0,1,1,981.974,3648.84Zm-21.488-20.19a16.285,16.285,0,1,0,16.183,16.29A16.26,16.26,0,0,0,960.486,3628.65Zm0,28.95a12.665,12.665,0,1,1,12.584-12.66A12.639,12.639,0,0,1,960.486,3657.6Z" transform="translate(-934.5 -3618.5)"/>
</svg>
