<svg xmlns="http://www.w3.org/2000/svg" width="55" height="49" viewBox="0 0 55 49">
  <metadata><?xpacket begin="﻿" id="W5M0MpCehiHzreSzNTczkc9d"?>
<x:xmpmeta xmlns:x="adobe:ns:meta/" x:xmptk="Adobe XMP Core 5.6-c142 79.160924, 2017/07/13-01:06:39        ">
   <rdf:RDF xmlns:rdf="http://www.w3.org/1999/02/22-rdf-syntax-ns#">
      <rdf:Description rdf:about=""/>
   </rdf:RDF>
</x:xmpmeta>
                                                                                                    
                                                                                                    
                                                                                                    
                                                                                                    
                                                                                                    
                                                                                                    
                                                                                                    
                                                                                                    
                                                                                                    
                                                                                                    
                                                                                                    
                                                                                                    
                                                                                                    
                                                                                                    
                                                                                                    
                                                                                                    
                                                                                                    
                                                                                                    
                                                                                                    
                                                                                                    
                           
<?xpacket end="w"?></metadata>
<defs>
    <style>
      .cls-1 {
        fill: none;
        stroke: #000;
        stroke-width: 1px;
        fill-rule: evenodd;
      }
    </style>
  </defs>
  <path class="cls-1" d="M590.638,2196.46a14.818,14.818,0,0,0-21.144.01l-1.477,1.49-1.5-1.52a14.829,14.829,0,0,0-21.143-.02,15.224,15.224,0,0,0,.023,21.38l21.5,21.74a1.527,1.527,0,0,0,2.175.01l21.545-21.7A15.266,15.266,0,0,0,590.638,2196.46Zm-2.2,19.18-20.457,20.6-20.411-20.64a12.087,12.087,0,0,1-.012-16.96,11.772,11.772,0,0,1,16.771.02l2.587,2.61a1.536,1.536,0,0,0,2.187,0l2.564-2.59a11.76,11.76,0,0,1,16.771-.01A12.114,12.114,0,0,1,588.44,2215.64Z" transform="translate(-540.5 -2191.5)"/>
</svg>
